<svg width="28" height="26" viewBox="0 0 28 26" fill="none" xmlns="http://www.w3.org/2000/svg">
    <g id="ArrowRight" filter="url(#filter0_d_4610_16220)">
        <path id="Vector"
            d="M19.8538 13.3538L15.3538 17.8538C15.2599 17.9476 15.1327 18.0003 15 18.0003C14.8673 18.0003 14.7401 17.9476 14.6462 17.8538C14.5524 17.7599 14.4997 17.6327 14.4997 17.5C14.4997 17.3673 14.5524 17.2401 14.6462 17.1463L18.2931 13.5H8.5C8.36739 13.5 8.24021 13.4473 8.14645 13.3536C8.05268 13.2598 8 13.1326 8 13C8 12.8674 8.05268 12.7402 8.14645 12.6465C8.24021 12.5527 8.36739 12.5 8.5 12.5H18.2931L14.6462 8.85375C14.5524 8.75993 14.4997 8.63269 14.4997 8.5C14.4997 8.36732 14.5524 8.24007 14.6462 8.14625C14.7401 8.05243 14.8673 7.99973 15 7.99973C15.1327 7.99973 15.2599 8.05243 15.3538 8.14625L19.8538 12.6463C19.9002 12.6927 19.9371 12.7478 19.9623 12.8085C19.9874 12.8692 20.0004 12.9343 20.0004 13C20.0004 13.0657 19.9874 13.1308 19.9623 13.1915C19.9371 13.2522 19.9002 13.3073 19.8538 13.3538Z"
            fill="#EBECEF" />
    </g>
    <defs>
        <filter id="filter0_d_4610_16220" x="-2" y="-3" width="32" height="32" filterUnits="userSpaceOnUse"
            color-interpolation-filters="sRGB">
            <feFlood flood-opacity="0" result="BackgroundImageFix" />
            <feColorMatrix in="SourceAlpha" type="matrix" values="0 0 0 0 0 0 0 0 0 0 0 0 0 0 0 0 0 0 127 0"
                result="hardAlpha" />
            <feOffset />
            <feGaussianBlur stdDeviation="4" />
            <feComposite in2="hardAlpha" operator="out" />
            <feColorMatrix type="matrix" values="0 0 0 0 1 0 0 0 0 1 0 0 0 0 1 0 0 0 0.45 0" />
            <feBlend mode="normal" in2="BackgroundImageFix" result="effect1_dropShadow_4610_16220" />
            <feBlend mode="normal" in="SourceGraphic" in2="effect1_dropShadow_4610_16220" result="shape" />
        </filter>
    </defs>
</svg>