<svg width="12" height="12" viewBox="0 0 12 12" fill="none" xmlns="http://www.w3.org/2000/svg">
    <g id="Check">
        <path id="Vector"
            d="M10.8979 3.77297L4.89795 9.77297C4.84569 9.82541 4.78359 9.86702 4.71522 9.89541C4.64685 9.9238 4.57354 9.93841 4.49951 9.93841C4.42548 9.93841 4.35217 9.9238 4.2838 9.89541C4.21543 9.86702 4.15333 9.82541 4.10107 9.77297L1.47607 7.14797C1.42375 7.09565 1.38224 7.03353 1.35393 6.96516C1.32561 6.8968 1.31104 6.82353 1.31104 6.74953C1.31104 6.67553 1.32561 6.60226 1.35393 6.5339C1.38224 6.46553 1.42375 6.40342 1.47607 6.35109C1.5284 6.29877 1.59051 6.25726 1.65888 6.22895C1.72724 6.20063 1.80051 6.18605 1.87451 6.18605C1.94851 6.18605 2.02178 6.20063 2.09014 6.22895C2.15851 6.25726 2.22062 6.29877 2.27295 6.35109L4.49998 8.57812L10.102 2.97703C10.2077 2.87136 10.351 2.81199 10.5004 2.81199C10.6499 2.81199 10.7932 2.87136 10.8989 2.97703C11.0046 3.0827 11.0639 3.22603 11.0639 3.37547C11.0639 3.52491 11.0046 3.66823 10.8989 3.77391L10.8979 3.77297Z"
            fill="currentColor" />
    </g>
</svg>