<svg xmlns="http://www.w3.org/2000/svg" width="32" height="32" viewBox="0 0 32 32" fill="none">
    <path
        d="M26.0612 23.9387C26.343 24.2205 26.5014 24.6027 26.5014 25.0012C26.5014 25.3997 26.343 25.7819 26.0612 26.0637C25.7795 26.3455 25.3973 26.5038 24.9987 26.5038C24.6002 26.5038 24.218 26.3455 23.9362 26.0637L16 18.125L8.06125 26.0612C7.77946 26.343 7.39726 26.5013 6.99875 26.5013C6.60023 26.5013 6.21804 26.343 5.93625 26.0612C5.65446 25.7794 5.49615 25.3972 5.49615 24.9987C5.49615 24.6002 5.65446 24.218 5.93625 23.9362L13.875 16L5.93875 8.06122C5.65696 7.77943 5.49865 7.39724 5.49865 6.99872C5.49865 6.60021 5.65696 6.21802 5.93875 5.93622C6.22054 5.65443 6.60273 5.49612 7.00125 5.49612C7.39976 5.49612 7.78196 5.65443 8.06375 5.93622L16 13.875L23.9387 5.93497C24.2205 5.65318 24.6027 5.49487 25.0012 5.49487C25.3998 5.49487 25.782 5.65318 26.0637 5.93497C26.3455 6.21677 26.5038 6.59896 26.5038 6.99747C26.5038 7.39599 26.3455 7.77818 26.0637 8.05998L18.125 16L26.0612 23.9387Z"
        fill="currentColor" />
</svg>