<svg xmlns="http://www.w3.org/2000/svg" width="32" height="32" viewBox="0 0 32 32" fill="none">
    <path
        d="M27 9.00001H22.615C22.6637 8.95876 22.7137 8.91876 22.7612 8.87501C23.1409 8.53773 23.4468 8.12574 23.66 7.66482C23.8731 7.2039 23.9889 6.70395 24 6.19626C24.0164 5.64085 23.9191 5.08794 23.7142 4.57149C23.5092 4.05503 23.2008 3.58593 22.8079 3.19296C22.4151 2.8 21.9461 2.49148 21.4297 2.28633C20.9133 2.08119 20.3604 1.98375 19.805 2.00001C19.2971 2.01095 18.7969 2.12661 18.3358 2.33976C17.8746 2.55292 17.4624 2.85897 17.125 3.23876C16.6581 3.77987 16.2785 4.39056 16 5.04876C15.7215 4.39056 15.3419 3.77987 14.875 3.23876C14.5376 2.85897 14.1254 2.55292 13.6642 2.33976C13.2031 2.12661 12.7029 2.01095 12.195 2.00001C11.6396 1.98375 11.0867 2.08119 10.5703 2.28633C10.0539 2.49148 9.58491 2.8 9.19206 3.19296C8.79922 3.58593 8.49083 4.05503 8.28584 4.57149C8.08085 5.08794 7.98358 5.64085 8 6.19626C8.01111 6.70395 8.12686 7.2039 8.34001 7.66482C8.55315 8.12574 8.85911 8.53773 9.23875 8.87501C9.28625 8.91626 9.33625 8.95626 9.385 9.00001H5C4.46957 9.00001 3.96086 9.21072 3.58579 9.58579C3.21071 9.96087 3 10.4696 3 11V15C3 15.5304 3.21071 16.0391 3.58579 16.4142C3.96086 16.7893 4.46957 17 5 17V25C5 25.5304 5.21071 26.0391 5.58579 26.4142C5.96086 26.7893 6.46957 27 7 27H14.5C14.6326 27 14.7598 26.9473 14.8536 26.8536C14.9473 26.7598 15 26.6326 15 26.5V15H5V11H15V15H17V11H27V15H17V26.5C17 26.6326 17.0527 26.7598 17.1464 26.8536C17.2402 26.9473 17.3674 27 17.5 27H25C25.5304 27 26.0391 26.7893 26.4142 26.4142C26.7893 26.0391 27 25.5304 27 25V17C27.5304 17 28.0391 16.7893 28.4142 16.4142C28.7893 16.0391 29 15.5304 29 15V11C29 10.4696 28.7893 9.96087 28.4142 9.58579C28.0391 9.21072 27.5304 9.00001 27 9.00001ZM10.5638 7.37501C10.3889 7.21667 10.2487 7.0239 10.1519 6.80879C10.0551 6.59368 10.0038 6.36088 10.0013 6.12501C9.99493 5.84863 10.0438 5.57378 10.1451 5.31655C10.2463 5.05932 10.3979 4.82488 10.5909 4.62697C10.784 4.42907 11.0145 4.27168 11.2691 4.16402C11.5238 4.05636 11.7973 4.0006 12.0737 4.00001H12.135C12.3709 4.00255 12.6037 4.05383 12.8188 4.15063C13.0339 4.24743 13.2267 4.38766 13.385 4.56251C14.4338 5.74751 14.8038 7.71251 14.9338 8.92751C13.7137 8.79876 11.75 8.42876 10.5638 7.37501ZM21.4387 7.37501C20.2525 8.42501 18.2837 8.79501 17.0637 8.92501C17.2125 7.61126 17.625 5.68751 18.625 4.56376C18.7833 4.38891 18.9761 4.24868 19.1912 4.15188C19.4063 4.05508 19.6391 4.0038 19.875 4.00126H19.9363C20.2127 4.00298 20.486 4.05988 20.7402 4.16859C20.9944 4.27731 21.2244 4.43568 21.4166 4.6344C21.6088 4.83312 21.7594 5.06821 21.8596 5.32589C21.9597 5.58356 22.0075 5.85864 22 6.13501C21.9959 6.36928 21.9438 6.60022 21.8468 6.81351C21.7498 7.02681 21.6101 7.21792 21.4363 7.37501H21.4387Z"
        fill="currentColor" />
</svg>