<svg width="32" height="32" viewBox="0 0 32 32" fill="none" xmlns="http://www.w3.org/2000/svg">
    <path
        d="M28.7721 16.5159C29.5329 15.0106 30 13.4103 30 11.75C29.9977 9.69528 29.1804 7.72539 27.7275 6.27248C26.2746 4.81958 24.3047 4.00232 22.25 4C19.6688 4 17.4088 5.11 16 6.98625C14.5912 5.11 12.3313 4 9.75 4C7.69528 4.00232 5.72539 4.81958 4.27248 6.27248C2.81958 7.72539 2.00232 9.69528 2 11.75C2 20.5 14.9738 27.5825 15.5262 27.875C15.6719 27.9533 15.8346 27.9943 16 27.9943C16.1654 27.9943 16.3281 27.9533 16.4737 27.875C16.6189 27.7982 17.6212 27.2528 19.0203 26.3316C17.9788 25.1344 17.4 23.5971 17.4 22C17.4 19.645 18.4882 17.149 20.55 14.7813C21.4745 13.7117 22.5152 12.7483 23.6528 11.9088C23.7536 11.8381 23.8738 11.8002 23.997 11.8002C24.1202 11.8002 24.2404 11.8381 24.3412 11.9088C25.4809 12.7479 26.5236 13.7114 27.45 14.7813C27.9481 15.3533 28.3893 15.9327 28.7721 16.5159Z"
        fill="currentColor" />
    <path
        d="M26.5091 16.6713C25.8353 15.8561 25.077 15.1221 24.2482 14.4827C24.1748 14.4289 24.0874 14.4 23.9978 14.4C23.9082 14.4 23.8208 14.4289 23.7475 14.4827C22.9201 15.1223 22.1633 15.8564 21.4909 16.6713C19.9915 18.4753 19.2 20.3771 19.2 22.1714C19.2 23.5051 19.7057 24.7841 20.6059 25.7272C21.5061 26.6702 22.727 27.2 24 27.2C25.273 27.2 26.4939 26.6702 27.3941 25.7272C28.2943 24.7841 28.8 23.5051 28.8 22.1714C28.8 20.3771 28.0085 18.4753 26.5091 16.6713Z"
        fill="currentColor" />
</svg>