<svg width="35" height="32" viewBox="0 0 35 32" fill="none" xmlns="http://www.w3.org/2000/svg">
    <g id="ListBullets" filter="url(#filter0_d_460_2776)">
        <path id="Vector"
            d="M13 10C13 9.80109 13.079 9.61032 13.2197 9.46967C13.3603 9.32902 13.5511 9.25 13.75 9.25H25.75C25.9489 9.25 26.1397 9.32902 26.2803 9.46967C26.421 9.61032 26.5 9.80109 26.5 10C26.5 10.1989 26.421 10.3897 26.2803 10.5303C26.1397 10.671 25.9489 10.75 25.75 10.75H13.75C13.5511 10.75 13.3603 10.671 13.2197 10.5303C13.079 10.3897 13 10.1989 13 10ZM25.75 15.25H13.75C13.5511 15.25 13.3603 15.329 13.2197 15.4697C13.079 15.6103 13 15.8011 13 16C13 16.1989 13.079 16.3897 13.2197 16.5303C13.3603 16.671 13.5511 16.75 13.75 16.75H25.75C25.9489 16.75 26.1397 16.671 26.2803 16.5303C26.421 16.3897 26.5 16.1989 26.5 16C26.5 15.8011 26.421 15.6103 26.2803 15.4697C26.1397 15.329 25.9489 15.25 25.75 15.25ZM25.75 21.25H13.75C13.5511 21.25 13.3603 21.329 13.2197 21.4697C13.079 21.6103 13 21.8011 13 22C13 22.1989 13.079 22.3897 13.2197 22.5303C13.3603 22.671 13.5511 22.75 13.75 22.75H25.75C25.9489 22.75 26.1397 22.671 26.2803 22.5303C26.421 22.3897 26.5 22.1989 26.5 22C26.5 21.8011 26.421 21.6103 26.2803 21.4697C26.1397 21.329 25.9489 21.25 25.75 21.25ZM9.625 8.875C9.4025 8.875 9.18499 8.94098 8.99998 9.0646C8.81498 9.18821 8.67078 9.36391 8.58564 9.56948C8.50049 9.77505 8.47821 10.0012 8.52162 10.2195C8.56503 10.4377 8.67217 10.6382 8.82951 10.7955C8.98684 10.9528 9.1873 11.06 9.40552 11.1034C9.62375 11.1468 9.84995 11.1245 10.0555 11.0394C10.2611 10.9542 10.4368 10.81 10.5604 10.625C10.684 10.44 10.75 10.2225 10.75 10C10.75 9.70163 10.6315 9.41548 10.4205 9.2045C10.2095 8.99353 9.92337 8.875 9.625 8.875ZM9.625 14.875C9.4025 14.875 9.18499 14.941 8.99998 15.0646C8.81498 15.1882 8.67078 15.3639 8.58564 15.5695C8.50049 15.775 8.47821 16.0012 8.52162 16.2195C8.56503 16.4377 8.67217 16.6382 8.82951 16.7955C8.98684 16.9528 9.1873 17.06 9.40552 17.1034C9.62375 17.1468 9.84995 17.1245 10.0555 17.0394C10.2611 16.9542 10.4368 16.81 10.5604 16.625C10.684 16.44 10.75 16.2225 10.75 16C10.75 15.7016 10.6315 15.4155 10.4205 15.2045C10.2095 14.9935 9.92337 14.875 9.625 14.875ZM9.625 20.875C9.4025 20.875 9.18499 20.941 8.99998 21.0646C8.81498 21.1882 8.67078 21.3639 8.58564 21.5695C8.50049 21.775 8.47821 22.0012 8.52162 22.2195C8.56503 22.4377 8.67217 22.6382 8.82951 22.7955C8.98684 22.9528 9.1873 23.06 9.40552 23.1034C9.62375 23.1468 9.84995 23.1245 10.0555 23.0394C10.2611 22.9542 10.4368 22.81 10.5604 22.625C10.684 22.44 10.75 22.2225 10.75 22C10.75 21.7016 10.6315 21.4155 10.4205 21.2045C10.2095 20.9935 9.92337 20.875 9.625 20.875Z"
            fill="currentColor" />
    </g>
    <defs>
        <filter id="filter0_d_460_2776" x="-2.5" y="-4" width="40" height="40" filterUnits="userSpaceOnUse"
            color-interpolation-filters="sRGB">
            <feFlood flood-opacity="0" result="BackgroundImageFix" />
            <feColorMatrix in="SourceAlpha" type="matrix" values="0 0 0 0 0 0 0 0 0 0 0 0 0 0 0 0 0 0 127 0"
                result="hardAlpha" />
            <feOffset />
            <feGaussianBlur stdDeviation="4" />
            <feComposite in2="hardAlpha" operator="out" />
            <feColorMatrix type="matrix" values="0 0 0 0 1 0 0 0 0 1 0 0 0 0 1 0 0 0 0.45 0" />
            <feBlend mode="normal" in2="BackgroundImageFix" result="effect1_dropShadow_460_2776" />
            <feBlend mode="normal" in="SourceGraphic" in2="effect1_dropShadow_460_2776" result="shape" />
        </filter>
    </defs>
</svg>