<svg xmlns="http://www.w3.org/2000/svg" width="20" height="20" viewBox="0 0 20 20" fill="none">
    <path
        d="M18.5 14.6945L11.668 2.82968C11.4972 2.53899 11.2535 2.29797 10.9609 2.13051C10.6684 1.96304 10.3371 1.87494 9.99998 1.87494C9.66287 1.87494 9.33161 1.96304 9.03904 2.13051C8.74647 2.29797 8.50274 2.53899 8.33202 2.82968L1.49998 14.6945C1.33571 14.9757 1.24915 15.2955 1.24915 15.6211C1.24915 15.9467 1.33571 16.2665 1.49998 16.5476C1.66852 16.8401 1.91184 17.0824 2.20495 17.2498C2.49807 17.4171 2.83044 17.5035 3.16795 17.5H16.832C17.1693 17.5032 17.5013 17.4167 17.7941 17.2494C18.0869 17.082 18.33 16.8399 18.4984 16.5476C18.6629 16.2666 18.7498 15.9469 18.75 15.6213C18.7503 15.2957 18.664 14.9758 18.5 14.6945ZM9.37498 8.12499C9.37498 7.95923 9.44083 7.80026 9.55804 7.68305C9.67525 7.56584 9.83422 7.49999 9.99998 7.49999C10.1657 7.49999 10.3247 7.56584 10.4419 7.68305C10.5591 7.80026 10.625 7.95923 10.625 8.12499V11.25C10.625 11.4158 10.5591 11.5747 10.4419 11.6919C10.3247 11.8091 10.1657 11.875 9.99998 11.875C9.83422 11.875 9.67525 11.8091 9.55804 11.6919C9.44083 11.5747 9.37498 11.4158 9.37498 11.25V8.12499ZM9.99998 15C9.81456 15 9.63331 14.945 9.47914 14.842C9.32497 14.739 9.2048 14.5926 9.13385 14.4213C9.06289 14.2499 9.04432 14.0615 9.0805 13.8796C9.11667 13.6977 9.20596 13.5307 9.33707 13.3996C9.46818 13.2685 9.63523 13.1792 9.81709 13.143C9.99894 13.1068 10.1874 13.1254 10.3587 13.1964C10.5301 13.2673 10.6765 13.3875 10.7795 13.5416C10.8825 13.6958 10.9375 13.8771 10.9375 14.0625C10.9375 14.3111 10.8387 14.5496 10.6629 14.7254C10.4871 14.9012 10.2486 15 9.99998 15Z"
        fill="currentColor" />
</svg>